<svg width="1800" height="315" viewBox="0 0 1800 315" fill="none" xmlns="http://www.w3.org/2000/svg">
<g clip-path="url(#clip0_2269_21948)">
<g filter="url(#filter0_f_2269_21948)">
<rect x="167" y="71" width="1467" height="173" rx="86.5" fill="#C91EB8"/>
</g>
<g opacity="0.3">
<rect x="931.641" width="1.47656" height="315" fill="#5B1859"/>
<rect x="963.117" width="1.47656" height="315" fill="#5B1859"/>
<rect x="18.9531" width="1.47656" height="315" fill="#5B1859"/>
<rect x="994.594" width="1.47656" height="315" fill="#5B1859"/>
<rect x="50.4297" width="1.47656" height="315" fill="#5B1859"/>
<rect x="1026.07" width="1.47656" height="315" fill="#5B1859"/>
<rect x="81.9062" width="1.47656" height="315" fill="#5B1859"/>
<rect x="1057.55" width="1.47656" height="315" fill="#5B1859"/>
<rect x="113.383" width="1.47656" height="315" fill="#5B1859"/>
<rect x="1089.02" width="1.47656" height="315" fill="#5B1859"/>
<rect x="144.859" width="1.47656" height="315" fill="#5B1859"/>
<rect x="1120.5" width="1.47656" height="315" fill="#5B1859"/>
<rect x="176.336" width="1.47656" height="315" fill="#5B1859"/>
<rect x="1151.98" width="1.47656" height="315" fill="#5B1859"/>
<rect x="207.812" width="1.47656" height="315" fill="#5B1859"/>
<rect x="1183.45" width="1.47656" height="315" fill="#5B1859"/>
<rect x="239.289" width="1.47656" height="315" fill="#5B1859"/>
<rect x="1214.93" width="1.47656" height="315" fill="#5B1859"/>
<rect x="270.766" width="1.47656" height="315" fill="#5B1859"/>
<rect x="1246.41" width="1.47656" height="315" fill="#5B1859"/>
<rect x="302.242" width="1.47656" height="315" fill="#5B1859"/>
<rect x="1277.88" width="1.47656" height="315" fill="#5B1859"/>
<rect x="333.719" width="1.47656" height="315" fill="#5B1859"/>
<rect x="1309.36" width="1.47656" height="315" fill="#5B1859"/>
<rect x="365.195" width="1.47656" height="315" fill="#5B1859"/>
<rect x="1340.84" width="1.47656" height="315" fill="#5B1859"/>
<rect x="396.672" width="1.47656" height="315" fill="#5B1859"/>
<rect x="1372.31" width="1.47656" height="315" fill="#5B1859"/>
<rect x="428.148" width="1.47656" height="315" fill="#5B1859"/>
<rect x="1403.79" width="1.47656" height="315" fill="#5B1859"/>
<rect x="459.625" width="1.47656" height="315" fill="#5B1859"/>
<rect x="1435.27" width="1.47656" height="315" fill="#5B1859"/>
<rect x="491.102" width="1.47656" height="315" fill="#5B1859"/>
<rect x="1466.74" width="1.47656" height="315" fill="#5B1859"/>
<rect x="522.578" width="1.47656" height="315" fill="#5B1859"/>
<rect x="1498.22" width="1.47656" height="315" fill="#5B1859"/>
<rect x="554.055" width="1.47656" height="315" fill="#5B1859"/>
<rect x="1529.7" width="1.47656" height="315" fill="#5B1859"/>
<rect x="585.531" width="1.47656" height="315" fill="#5B1859"/>
<rect x="1561.17" width="1.47656" height="315" fill="#5B1859"/>
<rect x="617.008" width="1.47656" height="315" fill="#5B1859"/>
<rect x="1592.65" width="1.47656" height="315" fill="#5B1859"/>
<rect x="648.484" width="1.47656" height="315" fill="#5B1859"/>
<rect x="1624.12" width="1.47656" height="315" fill="#5B1859"/>
<rect x="679.961" width="1.47656" height="315" fill="#5B1859"/>
<rect x="1655.6" width="1.47656" height="315" fill="#5B1859"/>
<rect x="711.438" width="1.47656" height="315" fill="#5B1859"/>
<rect x="1687.08" width="1.47656" height="315" fill="#5B1859"/>
<rect x="742.914" width="1.47656" height="315" fill="#5B1859"/>
<rect x="1718.55" width="1.47656" height="315" fill="#5B1859"/>
<rect x="774.391" width="1.47656" height="315" fill="#5B1859"/>
<rect x="1750.03" width="1.47656" height="315" fill="#5B1859"/>
<rect x="805.867" width="1.47656" height="315" fill="#5B1859"/>
<rect x="1781.51" width="1.47656" height="315" fill="#5B1859"/>
<rect x="837.344" width="1.47656" height="315" fill="#5B1859"/>
<rect x="868.82" width="1.47656" height="315" fill="#5B1859"/>
<rect x="900.297" width="1.47656" height="315" fill="#5B1859"/>
<rect x="-53.6094" y="173" width="1939.22" height="1.47656" fill="#5B1859"/>
<rect x="-53.6094" y="15.3984" width="1939.22" height="1.47656" fill="#5B1859"/>
<rect x="-53.6094" y="204.477" width="1939.22" height="1.47656" fill="#5B1859"/>
<rect x="-53.6094" y="46.875" width="1939.22" height="1.47656" fill="#5B1859"/>
<rect x="-53.6094" y="235.953" width="1939.22" height="1.47656" fill="#5B1859"/>
<rect x="-53.6094" y="78.3516" width="1939.22" height="1.47656" fill="#5B1859"/>
<rect x="-53.6094" y="267.43" width="1939.22" height="1.47656" fill="#5B1859"/>
<rect x="-53.6094" y="109.828" width="1939.22" height="1.47656" fill="#5B1859"/>
<rect x="-53.6094" y="298.906" width="1939.22" height="1.47656" fill="#5B1859"/>
<rect x="-53.6094" y="141.305" width="1939.22" height="1.47656" fill="#5B1859"/>
</g>
</g>
<defs>
<filter id="filter0_f_2269_21948" x="-633" y="-729" width="3067" height="1773" filterUnits="userSpaceOnUse" color-interpolation-filters="sRGB">
<feFlood flood-opacity="0" result="BackgroundImageFix"/>
<feBlend mode="normal" in="SourceGraphic" in2="BackgroundImageFix" result="shape"/>
<feGaussianBlur stdDeviation="400" result="effect1_foregroundBlur_2269_21948"/>
</filter>
<clipPath id="clip0_2269_21948">
<rect width="1800" height="315" fill="white"/>
</clipPath>
</defs>
</svg>
